<?xml version="1.0" standalone="no"?>
<!DOCTYPE svg PUBLIC "-//W3C//DTD SVG 20010904//EN"
 "http://www.w3.org/TR/2001/REC-SVG-20010904/DTD/svg10.dtd">
<svg version="1.0" xmlns="http://www.w3.org/2000/svg"
 width="1280.000000pt" height="720.000000pt" viewBox="0 0 1280.000000 720.000000"
 preserveAspectRatio="xMidYMid meet">

<g transform="translate(0.000000,720.000000) scale(0.100000,-0.100000)"
fill="#000000" stroke="none">
<path d="M8370 5125 c-189 -32 -372 -106 -501 -204 -203 -154 -366 -400 -445
-669 -54 -188 -68 -306 -69 -577 0 -267 5 -318 55 -510 119 -464 453 -809 897
-926 112 -30 363 -37 502 -15 277 44 497 173 664 390 177 228 262 460 298 811
13 129 8 379 -11 525 -73 568 -376 995 -805 1135 -163 53 -409 70 -585 40z
m375 -190 c283 -72 446 -306 510 -730 28 -186 40 -511 27 -721 -19 -319 -64
-526 -151 -709 -79 -165 -167 -262 -293 -326 -115 -58 -276 -75 -423 -44 -83
17 -215 82 -267 130 -149 138 -239 335 -289 630 -42 248 -37 748 12 1016 79
439 273 700 564 759 70 14 247 11 310 -5z"/>
<path d="M8481 4794 c-254 -68 -415 -328 -477 -768 -21 -153 -30 -571 -15
-733 28 -303 88 -489 211 -652 61 -80 176 -185 193 -174 5 3 -18 33 -51 67
-124 127 -200 282 -251 512 -61 274 -68 737 -15 1054 28 165 65 280 132 407
30 57 126 158 179 190 155 91 346 83 572 -22 l96 -45 -55 52 c-62 58 -148 101
-235 117 -81 15 -219 13 -284 -5z"/>
<path d="M1870 5096 c8 -7 74 -66 145 -131 l130 -117 6 -891 c6 -952 8 -986
59 -1187 90 -355 328 -521 803 -561 225 -18 457 8 613 71 203 81 320 222 364
440 32 158 40 398 40 1256 l0 822 73 58 c67 53 280 227 301 246 6 4 -198 8
-452 8 l-463 0 172 -157 171 -158 -7 -810 c-8 -969 -17 -1134 -76 -1291 -81
-215 -281 -316 -594 -300 -145 7 -222 23 -306 63 -112 53 -185 151 -225 298
-23 85 -33 491 -33 1350 l-1 710 147 147 148 148 -515 0 c-439 0 -512 -2 -500
-14z"/>
<path d="M4650 5106 c0 -3 63 -57 140 -122 l140 -118 0 -925 c0 -989 -5 -1141
-45 -1299 -43 -167 -123 -265 -286 -346 l-86 -43 250 -8 c138 -4 364 -5 502
-4 l252 4 54 -59 c30 -32 56 -63 57 -67 2 -5 -243 -9 -552 -9 l-556 0 12 -25
11 -25 605 0 604 0 -95 103 c-87 93 -101 104 -161 125 -137 47 -253 138 -302
238 -30 62 -59 200 -74 354 -15 154 -26 1759 -12 1745 6 -5 34 -55 64 -110
l53 -100 6 -835 c6 -894 4 -871 56 -1010 37 -98 103 -183 175 -224 30 -18 28
-15 -20 39 -148 162 -162 266 -162 1245 0 486 3 661 11 653 6 -6 46 -78 88
-161 42 -82 276 -536 520 -1009 l444 -860 60 -7 c33 -3 118 -6 188 -6 l128 0
4 1158 c3 1136 3 1159 24 1250 50 216 103 280 369 449 15 9 -85 12 -461 12
l-479 1 82 -51 c94 -58 180 -137 205 -190 27 -58 46 -145 57 -264 12 -134 14
-1433 1 -1419 -23 25 -851 1668 -843 1673 143 92 262 176 259 184 -2 6 -10 15
-19 20 -12 8 -50 -14 -166 -93 l-151 -102 49 -97 c26 -53 235 -460 464 -906
l417 -810 -3 -135 -3 -135 -494 965 c-611 1194 -591 1154 -588 1156 1 1 69 47
151 103 l149 101 -546 0 c-301 0 -547 -2 -547 -4z"/>
<path d="M2832 4912 l-124 -117 4 -945 c4 -909 5 -948 25 -1035 28 -124 57
-180 128 -250 56 -56 165 -127 165 -108 0 5 -25 31 -55 57 -31 26 -74 72 -97
102 -36 48 -45 73 -74 192 l-33 137 -1 915 0 915 109 109 c92 92 108 112 100
128 -5 10 -13 18 -17 18 -4 0 -62 -53 -130 -118z"/>
<path d="M9300 5016 c0 -3 26 -22 58 -43 241 -159 436 -477 522 -848 63 -275
71 -643 19 -910 -83 -430 -329 -792 -669 -983 -312 -175 -783 -189 -1116 -33
-46 22 -84 38 -84 36 0 -2 31 -22 68 -45 92 -54 227 -107 337 -132 174 -40
459 -23 643 38 84 28 229 101 299 150 161 115 333 322 431 519 203 409 237
1056 81 1525 -83 249 -228 476 -387 604 -92 75 -202 141 -202 122z"/>
<path d="M4305 4870 l-160 -130 -6 -928 c-6 -991 -8 -1027 -59 -1226 -80 -307
-335 -483 -749 -516 -301 -24 -574 25 -801 141 -52 27 -84 40 -70 29 172 -141
393 -212 695 -227 553 -25 910 193 995 607 38 185 42 301 47 1206 l5 891 148
123 c128 106 148 126 139 142 -5 10 -13 18 -17 18 -4 0 -79 -59 -167 -130z"/>
<path d="M7180 4934 c-134 -36 -228 -102 -269 -190 -56 -118 -54 -75 -58
-1406 l-4 -1228 -219 0 c-121 0 -220 -3 -220 -6 0 -3 5 -14 10 -25 10 -18 24
-19 245 -19 l234 0 4 1243 c3 1120 5 1249 20 1311 33 137 97 209 225 256 41
15 62 29 74 50 9 17 16 30 15 29 -1 0 -27 -7 -57 -15z"/>
</g>
</svg>
