<?xml version="1.0" standalone="no"?>
<!DOCTYPE svg PUBLIC "-//W3C//DTD SVG 20010904//EN"
 "http://www.w3.org/TR/2001/REC-SVG-20010904/DTD/svg10.dtd">
<svg version="1.0" xmlns="http://www.w3.org/2000/svg"
 width="1280.000000pt" height="720.000000pt" viewBox="0 0 1280.000000 720.000000"
 preserveAspectRatio="xMidYMid meet">

<style>
  .color{
  	fill: blue;
  }
</style>

<g transform="translate(0.000000,720.000000) scale(0.100000,-0.100000)"
fill="#000000" stroke="none">
<path class="color" d="M4126 4220 c-81 -13 -177 -41 -266 -79 -84 -35 -110 -50 -95 -57 6
-2 28 -15 50 -27 l40 -23 3 -267 2 -267 -67 0 -68 0 -17 -57 c-9 -32 -15 -59
-14 -61 2 -1 14 2 28 7 14 5 49 11 79 13 52 3 54 2 57 -25 2 -16 -2 -29 -10
-31 -7 -3 -39 -12 -70 -21 -32 -8 -58 -20 -58 -25 0 -5 29 0 64 10 36 10 67
16 70 12 3 -3 6 -85 6 -183 l0 -177 -64 -59 -64 -60 91 -7 c138 -9 335 -7 342
4 3 5 -17 34 -45 64 l-50 53 2 244 3 243 112 17 c62 9 119 19 128 23 20 7 50
-55 32 -66 -13 -8 -120 -33 -179 -43 l-38 -6 0 -215 0 -214 75 -79 c41 -43 75
-81 75 -85 0 -3 -112 -6 -250 -6 -160 0 -250 -4 -250 -10 0 -6 99 -10 276 -10
l276 0 -70 78 c-38 42 -79 86 -91 96 -20 18 -21 28 -21 223 0 155 3 204 13
207 6 2 48 12 92 23 44 11 87 23 96 27 14 6 24 -14 62 -116 49 -133 107 -350
132 -493 27 -152 14 -140 98 -93 39 23 113 59 162 81 50 21 91 40 93 41 1 2
-29 35 -67 75 -83 86 -173 211 -247 342 -56 98 -124 249 -124 274 0 7 15 17
33 20 111 25 247 127 293 220 34 70 37 168 6 237 -41 93 -155 175 -297 214
-71 19 -282 27 -369 14z m225 -74 c282 -66 323 -396 67 -527 -58 -29 -168 -66
-223 -75 l-45 -6 0 255 c0 223 2 256 16 261 30 11 181 6 228 -8 27 -8 66 -27
88 -41 22 -15 42 -24 45 -21 10 9 -81 67 -130 81 -52 15 -163 20 -229 9 l-38
-7 0 -268 0 -269 -30 0 -30 0 0 294 0 294 43 16 c81 29 152 33 238 12z"/>
<path class="color" d="M9235 4220 c-241 -33 -412 -200 -476 -465 -28 -115 -30 -330 -5 -445
49 -220 203 -398 405 -467 81 -28 235 -31 326 -8 136 36 268 145 333 277 63
128 77 203 76 398 -1 146 -5 188 -23 254 -59 220 -196 380 -372 435 -77 24
-182 32 -264 21z m182 -95 c120 -36 196 -142 229 -320 26 -136 24 -429 -3
-556 -53 -245 -176 -364 -357 -345 -120 12 -204 75 -256 191 -51 112 -65 200
-64 410 1 250 28 378 103 497 71 112 214 163 348 123z"/>
<path class="color" d="M9285 4061 c-110 -28 -179 -118 -222 -286 -14 -56 -18 -113 -18 -290
0 -234 8 -287 56 -390 23 -48 113 -155 131 -155 6 0 -7 18 -29 39 -50 51 -88
128 -115 238 -18 74 -22 117 -22 268 -1 250 31 391 109 483 68 80 182 99 303
50 68 -28 67 -12 -1 21 -47 22 -147 34 -192 22z"/>
<path class="color" d="M2462 4150 l66 -60 5 -447 c5 -476 12 -543 59 -638 55 -109 156 -166
334 -186 220 -24 401 38 464 161 39 77 44 137 41 560 -1 223 1 433 5 467 6 60
7 63 63 107 31 25 70 57 86 71 l30 25 -215 -1 -215 0 78 -73 79 -72 -5 -455
c-5 -491 -8 -530 -60 -608 -17 -26 -45 -48 -83 -67 -52 -25 -68 -28 -158 -28
-151 0 -216 34 -266 139 -12 25 -16 118 -18 529 l-3 499 49 51 c90 95 106 86
-163 86 l-238 0 65 -60z"/>
<path class="color" d="M5101 4197 c8 -7 43 -34 77 -61 l62 -49 0 -233 0 -234 -29 0 c-37 0
-90 -18 -121 -42 -23 -18 -70 -84 -70 -100 0 -4 20 4 43 18 24 13 68 29 98 34
47 9 56 8 66 -7 21 -27 15 -41 -19 -48 -49 -11 -121 -36 -135 -47 -21 -17 -3
-29 20 -13 26 16 128 45 140 38 4 -2 7 -111 7 -242 l0 -239 -75 -56 c-41 -31
-75 -59 -75 -61 0 -3 266 -5 591 -5 l591 0 -57 63 c-56 61 -119 175 -131 235
-4 18 -10 32 -14 32 -5 0 -22 -25 -39 -55 -40 -71 -95 -132 -141 -155 -44 -23
-124 -37 -252 -46 l-98 -7 0 272 0 271 111 0 c71 0 108 4 104 10 -4 6 -55 10
-121 10 l-114 0 0 -280 c0 -269 -1 -280 -19 -280 -53 0 -51 -11 -51 311 l0
299 149 0 149 0 63 -82 64 -83 3 113 c1 62 1 161 0 219 l-3 106 -67 -92 -68
-91 -100 0 -100 0 0 209 0 208 88 6 c139 10 214 -4 284 -52 57 -39 58 -40 38
-12 -37 52 -113 81 -232 88 -57 3 -125 3 -151 -1 l-47 -7 0 -220 c0 -209 -1
-219 -19 -219 -52 0 -51 -6 -51 256 l0 244 26 6 c46 12 315 -3 371 -20 59 -19
111 -71 155 -155 l26 -52 47 93 c26 51 66 121 90 155 l44 63 -562 0 c-444 -1
-559 -3 -546 -13z"/>
<path class="color" d="M6463 4147 l67 -62 0 -567 0 -568 -67 -55 -68 -56 -29 33 c-96 112
-124 149 -151 200 -26 51 -55 82 -55 60 0 -22 96 -166 149 -224 l61 -66 -17
-36 -17 -36 -588 0 c-385 0 -588 -3 -588 -10 0 -7 204 -10 593 -10 l592 0 26
42 25 42 547 -3 c318 -2 547 1 547 6 0 5 -12 25 -26 44 -33 43 -88 151 -130
254 -18 44 -35 73 -38 65 -29 -93 -39 -119 -61 -156 -25 -42 -80 -87 -137
-112 -40 -17 -187 -32 -233 -24 l-40 7 -3 563 -2 563 56 59 c30 32 51 61 46
64 -5 3 -32 -19 -61 -48 l-53 -54 -2 -573 -1 -574 -30 0 -30 0 -3 575 -2 574
72 73 72 73 -244 0 -245 -1 68 -62z"/>
<path class="color" d="M7633 4147 l67 -62 0 -567 0 -566 -47 -41 c-27 -23 -51 -41 -55 -41
-11 0 -78 104 -132 202 -41 77 -66 112 -66 93 0 -18 78 -165 122 -232 59 -87
62 -97 47 -135 l-11 -28 -570 0 c-377 0 -567 -3 -563 -10 4 -6 206 -10 574
-10 l567 0 20 41 20 42 527 -2 c296 -1 527 1 527 6 0 5 -12 25 -26 44 -33 43
-88 151 -130 254 -18 44 -35 73 -38 65 -29 -93 -39 -119 -61 -156 -25 -42 -80
-87 -137 -112 -40 -17 -187 -32 -233 -24 l-40 7 -3 563 -2 563 56 59 c30 32
51 61 46 64 -5 3 -32 -19 -61 -48 l-53 -54 -2 -573 -1 -574 -30 0 -30 0 -3
575 -2 574 72 73 72 73 -244 0 -245 -1 68 -62z"/>
<path class="color" d="M2861 4116 l-53 -53 0 -454 c0 -250 3 -472 7 -494 14 -73 54 -133
107 -161 23 -12 20 -6 -16 30 -73 76 -76 99 -76 623 l0 449 50 49 c48 47 59
65 42 65 -4 0 -32 -24 -61 -54z"/>
<path class="color" d="M3569 4097 l-77 -62 -4 -485 c-5 -525 -7 -552 -62 -637 -72 -113
-187 -163 -376 -164 -137 -1 -229 15 -311 56 -32 15 -33 15 -14 -1 64 -52 240
-90 370 -80 147 12 236 46 309 119 97 98 106 153 113 729 l6 458 68 56 c38 30
67 59 64 65 -8 12 1 17 -86 -54z"/>
<path d="M6238 4133 c-56 -66 -163 -255 -155 -276 2 -7 16 13 32 43 15 30 53
93 84 140 31 47 60 91 64 98 12 18 -8 14 -25 -5z"/>
<path d="M9772 4084 c94 -99 152 -214 183 -368 87 -433 -80 -815 -405 -927
-115 -39 -298 -37 -415 6 -16 5 -17 5 -5 -4 8 -6 44 -21 80 -32 76 -25 216
-29 301 -9 212 50 378 219 447 455 73 247 47 542 -64 742 -36 66 -123 167
-158 185 -11 5 4 -16 36 -48z"/>
<path d="M4861 3981 c47 -127 11 -276 -91 -372 -27 -25 -85 -63 -129 -85 -96
-46 -95 -37 -16 -199 108 -224 234 -382 399 -501 l29 -21 -69 -23 c-148 -49
-376 -161 -360 -177 3 -3 70 26 148 66 79 39 183 83 231 99 l89 28 -69 51
c-93 69 -207 190 -276 294 -61 92 -144 258 -152 305 -5 27 -1 31 66 63 86 40
180 129 211 197 40 91 32 245 -16 309 -11 14 -9 3 5 -34z"/>
<path d="M5930 3556 c0 -146 4 -237 10 -241 7 -4 10 75 10 229 0 146 -4 237
-10 241 -7 4 -10 -75 -10 -229z"/>
<path d="M8570 3165 c0 -21 91 -188 136 -252 l53 -73 -16 -35 -17 -35 -568 0
c-377 0 -567 -3 -563 -10 4 -6 206 -10 574 -10 l567 0 22 45 22 46 -48 72
c-27 40 -70 111 -96 159 -41 78 -66 112 -66 93z"/>
</g>
</svg>
